<svg viewBox="0 0 627 514" xmlns="http://www.w3.org/2000/svg" xml:space="preserve" style="fill-rule:evenodd;clip-rule:evenodd;stroke-linecap:round;stroke-linejoin:round;stroke-miterlimit:1.5"><g transform="matrix(.5375 0 0 .5375 33.722 163.831)"><g transform="rotate(15 1222.228 232.312)"><path d="M1039.37 18.605c0-10.269-8.34-18.605-18.6-18.605H18.605C8.336 0 0 8.336 0 18.605v612.397c0 10.268 8.336 18.604 18.605 18.604H1020.77c10.26 0 18.6-8.336 18.6-18.604V18.605z" style="fill:#f5f7f9"/><clipPath id="a"><path d="M1039.37 18.605c0-10.269-8.34-18.605-18.6-18.605H18.605C8.336 0 0 8.336 0 18.605v612.397c0 10.268 8.336 18.604 18.605 18.604H1020.77c10.26 0 18.6-8.336 18.6-18.604V18.605z"/></clipPath><g clip-path="url(#a)"><text x="285.931" y="556.214" style="font-family:'PalaceScriptMT','Palace Script MT',cursive;font-style:italic;font-size:550px;fill:#fff" transform="matrix(.81183 0 0 .81183 0 0)">QA</text><text x="100.386" y="130.789" style="font-family:'Montserrat-Regular','Montserrat';font-size:66.667px" transform="matrix(.89302 0 0 .89302 6.318 6.318)">$25</text><text x="152.176" y="449.841" style="font-family:'EdwardianScriptITC','Edwardian Script ITC',cursive;font-stretch:semi-expanded;font-size:175px" transform="matrix(.89302 0 0 .89302 70.318 -68.727)">Queen Anne</text><text x="319.549" y="554.008" style="font-family:'Montserrat-Regular','Montserrat';font-size:54.167px" transform="matrix(.89302 0 0 .89302 70.318 -68.727)">Nails an<tspan x="534.103" y="554.008">d</tspan> Sp<tspan x="654.895" y="554.008">a</tspan></text></g><path d="M1039.37 18.605c0-10.269-8.34-18.605-18.6-18.605H18.605C8.336 0 0 8.336 0 18.605v612.397c0 10.268 8.336 18.604 18.605 18.604H1020.77c10.26 0 18.6-8.336 18.6-18.604V18.605z" style="fill:none;stroke:#616d89;stroke-width:1.12px"/></g><g transform="rotate(8 1110.988 283.455)"><path d="M1039.37 18.605c0-10.269-8.34-18.605-18.6-18.605H18.605C8.336 0 0 8.336 0 18.605v612.397c0 10.268 8.336 18.604 18.605 18.604H1020.77c10.26 0 18.6-8.336 18.6-18.604V18.605z" style="fill:#f5f7f9"/><clipPath id="b"><path d="M1039.37 18.605c0-10.269-8.34-18.605-18.6-18.605H18.605C8.336 0 0 8.336 0 18.605v612.397c0 10.268 8.336 18.604 18.605 18.604H1020.77c10.26 0 18.6-8.336 18.6-18.604V18.605z"/></clipPath><g clip-path="url(#b)"><text x="285.931" y="556.214" style="font-family:'PalaceScriptMT','Palace Script MT',cursive;font-style:italic;font-size:550px;fill:#fff" transform="matrix(.81183 0 0 .81183 0 0)">QA</text><text x="97.253" y="130.789" style="font-family:'Montserrat-Regular','Montserrat';font-size:66.667px" transform="matrix(.89302 0 0 .89302 6.318 6.318)">$50</text><text x="152.176" y="449.841" style="font-family:'EdwardianScriptITC','Edwardian Script ITC',cursive;font-stretch:semi-expanded;font-size:175px" transform="matrix(.89302 0 0 .89302 70.318 -68.727)">Queen Anne</text><text x="319.549" y="554.008" style="font-family:'Montserrat-Regular','Montserrat';font-size:54.167px" transform="matrix(.89302 0 0 .89302 70.318 -68.727)">Nails an<tspan x="534.103" y="554.008">d</tspan> Sp<tspan x="654.895" y="554.008">a</tspan></text></g><path d="M1039.37 18.605c0-10.269-8.34-18.605-18.6-18.605H18.605C8.336 0 0 8.336 0 18.605v612.397c0 10.268 8.336 18.604 18.605 18.604H1020.77c10.26 0 18.6-8.336 18.6-18.604V18.605z" style="fill:none;stroke:#616d89;stroke-width:1.12px"/></g><path d="M1039.37 18.605c0-10.269-8.34-18.605-18.6-18.605H18.605C8.336 0 0 8.336 0 18.605v612.397c0 10.268 8.336 18.604 18.605 18.604H1020.77c10.26 0 18.6-8.336 18.6-18.604V18.605z" style="fill:#f5f7f9"/><clipPath id="c"><path d="M1039.37 18.605c0-10.269-8.34-18.605-18.6-18.605H18.605C8.336 0 0 8.336 0 18.605v612.397c0 10.268 8.336 18.604 18.605 18.604H1020.77c10.26 0 18.6-8.336 18.6-18.604V18.605z"/></clipPath><g clip-path="url(#c)"><text x="285.931" y="556.214" style="font-family:'PalaceScriptMT','Palace Script MT',cursive;font-style:italic;font-size:550px;fill:#fff" transform="matrix(.81183 0 0 .81183 0 0)">QA</text><text x="100.653" y="130.789" style="font-family:'Montserrat-Regular','Montserrat';font-size:66.667px" transform="matrix(.89302 0 0 .89302 6.318 6.318)">$<tspan x="140.986px 178.986px" y="130.789px 130.789px">75</tspan></text><text x="152.176" y="449.841" style="font-family:'EdwardianScriptITC','Edwardian Script ITC',cursive;font-stretch:semi-expanded;font-size:175px" transform="matrix(.89302 0 0 .89302 70.318 -68.727)">Queen Anne</text><text x="319.549" y="554.008" style="font-family:'Montserrat-Regular','Montserrat';font-size:54.167px" transform="matrix(.89302 0 0 .89302 70.318 -68.727)">Nails an<tspan x="534.103" y="554.008">d</tspan> Sp<tspan x="654.895" y="554.008">a</tspan></text></g><path d="M1039.37 18.605c0-10.269-8.34-18.605-18.6-18.605H18.605C8.336 0 0 8.336 0 18.605v612.397c0 10.268 8.336 18.604 18.605 18.604H1020.77c10.26 0 18.6-8.336 18.6-18.604V18.605z" style="fill:none;stroke:#616d89;stroke-width:1.12px"/></g></svg>