<?xml version="1.0" encoding="UTF-8" standalone="no"?>
<!DOCTYPE svg PUBLIC "-//W3C//DTD SVG 1.1//EN" "http://www.w3.org/Graphics/SVG/1.1/DTD/svg11.dtd">
<svg width="100%" height="100%" viewBox="0 0 879 237" version="1.1" xmlns="http://www.w3.org/2000/svg" xmlns:xlink="http://www.w3.org/1999/xlink" xml:space="preserve" xmlns:serif="http://www.serif.com/" style="fill-rule:evenodd;clip-rule:evenodd;stroke-linejoin:round;stroke-miterlimit:2;">
    <g transform="matrix(1,0,0,1,-531.8,-419.5)">
        <path d="M1055.23,621.344C1056.1,619.84 1057.38,618.584 1059.1,617.576C1060.81,616.568 1062.8,616.064 1065.07,616.064C1067.41,616.064 1069.53,616.624 1071.43,617.744C1073.34,618.864 1074.83,620.44 1075.92,622.472C1077.01,624.504 1077.55,626.864 1077.55,629.552C1077.55,632.208 1077.01,634.576 1075.92,636.656C1074.83,638.736 1073.34,640.352 1071.43,641.504C1069.53,642.656 1067.41,643.232 1065.07,643.232C1062.83,643.232 1060.86,642.728 1059.14,641.72C1057.43,640.712 1056.13,639.456 1055.23,637.952L1055.23,655.28L1050.86,655.28L1050.86,616.496L1055.23,616.496L1055.23,621.344ZM1081.68,629.552C1081.68,626.864 1082.22,624.504 1083.31,622.472C1084.4,620.44 1085.9,618.864 1087.8,617.744C1089.7,616.624 1091.82,616.064 1094.16,616.064C1096.46,616.064 1098.46,616.56 1100.16,617.552C1101.86,618.544 1103.12,619.792 1103.95,621.296L1103.95,616.496L1108.37,616.496L1108.37,642.8L1103.95,642.8L1103.95,637.904C1103.09,639.44 1101.8,640.712 1100.09,641.72C1098.38,642.728 1096.38,643.232 1094.11,643.232C1091.78,643.232 1089.66,642.656 1087.78,641.504C1085.89,640.352 1084.4,638.736 1083.31,636.656C1082.22,634.576 1081.68,632.208 1081.68,629.552ZM912.624,629.552C912.624,626.864 913.168,624.504 914.256,622.472C915.344,620.44 916.84,618.864 918.744,617.744C920.648,616.624 922.768,616.064 925.104,616.064C927.408,616.064 929.408,616.56 931.104,617.552C932.8,618.544 934.064,619.792 934.896,621.296L934.896,616.496L939.312,616.496L939.312,642.8L934.896,642.8L934.896,637.904C934.032,639.44 932.744,640.712 931.032,641.72C929.32,642.728 927.328,643.232 925.056,643.232C922.72,643.232 920.608,642.656 918.72,641.504C916.832,640.352 915.344,638.736 914.256,636.656C913.168,634.576 912.624,632.208 912.624,629.552ZM843.744,629.552C843.744,626.864 844.288,624.504 845.376,622.472C846.464,620.44 847.96,618.864 849.864,617.744C851.768,616.624 853.888,616.064 856.224,616.064C858.528,616.064 860.528,616.56 862.224,617.552C863.92,618.544 865.184,619.792 866.016,621.296L866.016,616.496L870.432,616.496L870.432,642.8L866.016,642.8L866.016,637.904C865.152,639.44 863.864,640.712 862.152,641.72C860.44,642.728 858.448,643.232 856.176,643.232C853.84,643.232 851.728,642.656 849.84,641.504C847.952,640.352 846.464,638.736 845.376,636.656C844.288,634.576 843.744,632.208 843.744,629.552ZM975.792,629.552C975.792,626.864 976.336,624.504 977.424,622.472C978.512,620.44 980.008,618.864 981.912,617.744C983.816,616.624 985.952,616.064 988.32,616.064C990.368,616.064 992.272,616.536 994.032,617.48C995.792,618.424 997.136,619.664 998.064,621.2L998.064,607.28L1002.48,607.28L1002.48,642.8L998.064,642.8L998.064,637.856C997.2,639.424 995.92,640.712 994.224,641.72C992.528,642.728 990.544,643.232 988.272,643.232C985.936,643.232 983.816,642.656 981.912,641.504C980.008,640.352 978.512,638.736 977.424,636.656C976.336,634.576 975.792,632.208 975.792,629.552ZM1033.3,643.136C1031.09,643.136 1029.11,642.744 1027.37,641.96C1025.62,641.176 1024.26,640.088 1023.26,638.696C1022.27,637.304 1021.76,635.696 1021.73,633.872L1026.38,633.872C1026.54,635.44 1027.19,636.76 1028.33,637.832C1029.46,638.904 1031.12,639.44 1033.3,639.44C1035.38,639.44 1037.02,638.92 1038.22,637.88C1039.42,636.84 1040.02,635.504 1040.02,633.872C1040.02,632.592 1039.66,631.552 1038.96,630.752C1038.26,629.952 1037.38,629.344 1036.32,628.928C1035.26,628.512 1033.84,628.064 1032.05,627.584C1029.84,627.008 1028.07,626.432 1026.74,625.856C1025.42,625.28 1024.28,624.376 1023.34,623.144C1022.39,621.912 1021.92,620.256 1021.92,618.176C1021.92,616.352 1022.38,614.736 1023.31,613.328C1024.24,611.92 1025.54,610.832 1027.22,610.064C1028.9,609.296 1030.83,608.912 1033.01,608.912C1036.14,608.912 1038.71,609.696 1040.71,611.264C1042.71,612.832 1043.84,614.912 1044.1,617.504L1039.3,617.504C1039.14,616.224 1038.46,615.096 1037.28,614.12C1036.1,613.144 1034.53,612.656 1032.58,612.656C1030.75,612.656 1029.26,613.128 1028.11,614.072C1026.96,615.016 1026.38,616.336 1026.38,618.032C1026.38,619.248 1026.73,620.24 1027.42,621.008C1028.1,621.776 1028.95,622.36 1029.96,622.76C1030.97,623.16 1032.38,623.616 1034.21,624.128C1036.42,624.736 1038.19,625.336 1039.54,625.928C1040.88,626.52 1042.03,627.432 1042.99,628.664C1043.95,629.896 1044.43,631.568 1044.43,633.68C1044.43,635.312 1044,636.848 1043.14,638.288C1042.27,639.728 1040.99,640.896 1039.3,641.792C1037.6,642.688 1035.6,643.136 1033.3,643.136ZM837.936,642.8L833.568,642.8L816,616.16L816,642.8L811.632,642.8L811.632,609.296L816,609.296L833.568,635.888L833.568,609.296L837.936,609.296L837.936,642.8ZM894,607.28L894,642.8L889.632,642.8L889.632,607.28L894,607.28ZM882.192,616.496L882.192,642.8L877.824,642.8L877.824,616.496L882.192,616.496ZM959.52,616.016C962.72,616.016 965.312,616.984 967.296,618.92C969.28,620.856 970.272,623.648 970.272,627.296L970.272,642.8L965.952,642.8L965.952,627.92C965.952,625.296 965.296,623.288 963.984,621.896C962.672,620.504 960.88,619.808 958.608,619.808C956.304,619.808 954.472,620.528 953.112,621.968C951.752,623.408 951.072,625.504 951.072,628.256L951.072,642.8L946.704,642.8L946.704,616.496L951.072,616.496L951.072,620.24C951.936,618.896 953.112,617.856 954.6,617.12C956.088,616.384 957.728,616.016 959.52,616.016ZM866.016,629.6C866.016,627.616 865.616,625.888 864.816,624.416C864.016,622.944 862.936,621.816 861.576,621.032C860.216,620.248 858.72,619.856 857.088,619.856C855.456,619.856 853.968,620.24 852.624,621.008C851.28,621.776 850.208,622.896 849.408,624.368C848.608,625.84 848.208,627.568 848.208,629.552C848.208,631.568 848.608,633.32 849.408,634.808C850.208,636.296 851.28,637.432 852.624,638.216C853.968,639 855.456,639.392 857.088,639.392C858.72,639.392 860.216,639 861.576,638.216C862.936,637.432 864.016,636.296 864.816,634.808C865.616,633.32 866.016,631.584 866.016,629.6ZM1103.95,629.6C1103.95,627.616 1103.55,625.888 1102.75,624.416C1101.95,622.944 1100.87,621.816 1099.51,621.032C1098.15,620.248 1096.66,619.856 1095.02,619.856C1093.39,619.856 1091.9,620.24 1090.56,621.008C1089.22,621.776 1088.14,622.896 1087.34,624.368C1086.54,625.84 1086.14,627.568 1086.14,629.552C1086.14,631.568 1086.54,633.32 1087.34,634.808C1088.14,636.296 1089.22,637.432 1090.56,638.216C1091.9,639 1093.39,639.392 1095.02,639.392C1096.66,639.392 1098.15,639 1099.51,638.216C1100.87,637.432 1101.95,636.296 1102.75,634.808C1103.55,633.32 1103.95,631.584 1103.95,629.6ZM998.064,629.6C998.064,627.616 997.664,625.888 996.864,624.416C996.064,622.944 994.984,621.816 993.624,621.032C992.264,620.248 990.768,619.856 989.136,619.856C987.504,619.856 986.016,620.24 984.672,621.008C983.328,621.776 982.256,622.896 981.456,624.368C980.656,625.84 980.256,627.568 980.256,629.552C980.256,631.568 980.656,633.32 981.456,634.808C982.256,636.296 983.328,637.432 984.672,638.216C986.016,639 987.504,639.392 989.136,639.392C990.768,639.392 992.264,639 993.624,638.216C994.984,637.432 996.064,636.296 996.864,634.808C997.664,633.32 998.064,631.584 998.064,629.6ZM1073.09,629.552C1073.09,627.568 1072.69,625.84 1071.89,624.368C1071.09,622.896 1070.01,621.776 1068.65,621.008C1067.29,620.24 1065.79,619.856 1064.16,619.856C1062.56,619.856 1061.08,620.248 1059.72,621.032C1058.36,621.816 1057.27,622.952 1056.46,624.44C1055.64,625.928 1055.23,627.648 1055.23,629.6C1055.23,631.584 1055.64,633.32 1056.46,634.808C1057.27,636.296 1058.36,637.432 1059.72,638.216C1061.08,639 1062.56,639.392 1064.16,639.392C1065.79,639.392 1067.29,639 1068.65,638.216C1070.01,637.432 1071.09,636.296 1071.89,634.808C1072.69,633.32 1073.09,631.568 1073.09,629.552ZM934.896,629.6C934.896,627.616 934.496,625.888 933.696,624.416C932.896,622.944 931.816,621.816 930.456,621.032C929.096,620.248 927.6,619.856 925.968,619.856C924.336,619.856 922.848,620.24 921.504,621.008C920.16,621.776 919.088,622.896 918.288,624.368C917.488,625.84 917.088,627.568 917.088,629.552C917.088,631.568 917.488,633.32 918.288,634.808C919.088,636.296 920.16,637.432 921.504,638.216C922.848,639 924.336,639.392 925.968,639.392C927.6,639.392 929.096,639 930.456,638.216C931.816,637.432 932.896,636.296 933.696,634.808C934.496,633.32 934.896,631.584 934.896,629.6ZM880.08,612.224C879.248,612.224 878.544,611.936 877.968,611.36C877.392,610.784 877.104,610.08 877.104,609.248C877.104,608.416 877.392,607.712 877.968,607.136C878.544,606.56 879.248,606.272 880.08,606.272C880.88,606.272 881.56,606.56 882.12,607.136C882.68,607.712 882.96,608.416 882.96,609.248C882.96,610.08 882.68,610.784 882.12,611.36C881.56,611.936 880.88,612.224 880.08,612.224ZM660.5,474.6C662.367,466.6 663.3,459.033 663.3,451.9C663.3,444.767 661.6,438.7 658.2,433.7C654.8,428.7 649.967,425.933 643.7,425.4C641.7,425.267 640.667,424.867 640.6,424.2C640.533,423.533 640.967,423 641.9,422.6C642.833,422.2 643.767,422.067 644.7,422.2C653.9,423.533 660.467,427.5 664.4,434.1C668.333,440.7 670.3,448.533 670.3,457.6C670.3,475.467 664.067,493.267 651.6,511C639.133,528.733 624.767,540.6 608.5,546.6C628.1,559.267 642.5,567.067 651.7,570C661.433,573.2 670.367,574.8 678.5,574.8C688.767,574.8 697.167,572.2 703.7,567C707.167,564.333 708.9,561.5 708.9,558.5C708.9,555.5 708.267,552.867 707,550.6C705.733,548.333 705.833,547.167 707.3,547.1C708.767,547.033 709.833,547.733 710.5,549.2C712.633,553.333 713.7,558.667 713.7,565.2C713.433,570.133 711.033,574.567 706.5,578.5C701.967,582.433 695.9,584.667 688.3,585.2C686.433,585.333 684.067,585.4 681.2,585.4C678.333,585.4 674.5,584.967 669.7,584.1C664.9,583.233 660.367,582.067 656.1,580.6C651.833,579.133 646.833,576.767 641.1,573.5C635.367,570.233 631.1,567.633 628.3,565.7C625.5,563.767 621.2,560.667 615.4,556.4C609.6,552.133 605.833,549.4 604.1,548.2C598.5,549.667 594.367,550.4 591.7,550.4C589.033,550.4 587.567,550.4 587.3,550.4C571.167,550.4 557.967,546.067 547.7,537.4C537.433,528.733 532.3,516.733 532.3,501.4C532.3,482.2 539.167,465.033 552.9,449.9C566.633,434.767 581.9,425.333 598.7,421.6C603.5,420.533 607.633,420 611.1,420C621.1,420 629.433,422.933 636.1,428.8C644.367,436.133 648.5,446.867 648.5,461C648.5,474.867 644.433,488.067 636.3,500.6C623.9,519.4 607.367,530.6 586.7,534.2C586.833,534.333 588.633,535.067 592.1,536.4L602.7,543C616.433,538.6 628.533,530 639,517.2C649.467,504.4 656.633,490.2 660.5,474.6ZM1176.7,519.876C1171.58,526.214 1165.51,532.255 1158.5,538C1152.63,542.667 1146.1,545 1138.9,545C1134.77,545 1131.77,543.167 1129.9,539.5C1128.03,535.833 1127.1,531.167 1127.1,525.5C1127.1,519.833 1128.3,512.067 1130.7,502.2C1126.03,501.8 1118.1,500.867 1106.9,499.4C1088.37,522.333 1072.97,538.267 1060.7,547.2C1050.17,555.067 1039.23,559 1027.9,559C1020.7,559 1014.53,557.2 1009.4,553.6C1004.27,550 1001.7,544.667 1001.7,537.6C1001.7,536.267 1002.03,535.033 1002.7,533.9C1003.37,532.767 1004.03,532.467 1004.7,533C1005.37,533.533 1005.7,535.067 1005.7,537.6C1005.7,542.133 1007.47,545.533 1011,547.8C1014.53,550.067 1018.83,551.2 1023.9,551.2C1034.83,551.2 1045.6,547.633 1056.2,540.5C1066.8,533.367 1081.23,519.4 1099.5,498.6C1079.9,496.2 1066.97,495 1060.7,495C1043.77,495 1033.3,500.533 1029.3,511.6C1028.77,513.067 1028.5,514.433 1028.5,515.7C1028.5,516.967 1028.77,518.1 1029.3,519.1C1029.83,520.1 1029.93,520.9 1029.6,521.5C1029.27,522.1 1028.7,522.367 1027.9,522.3C1027.1,522.233 1026.43,521.8 1025.9,521C1024.43,518.467 1023.7,516 1023.7,513.6C1023.7,505.333 1025.2,499.233 1028.2,495.3C1031.2,491.367 1034.7,488.867 1038.7,487.8C1043.5,486.467 1049.1,485.8 1055.5,485.8C1061.9,485.8 1078.03,488.333 1103.9,493.4C1111.1,485.133 1122.03,471.833 1136.7,453.5C1151.37,435.167 1158.7,425.867 1158.7,425.6L1158.9,425.6C1159.03,425.467 1159.37,425.267 1159.9,425C1163.1,423.133 1166.57,422.2 1170.3,422.2C1171.63,422.2 1172.3,422.867 1172.3,424.2C1172.3,424.333 1172.23,424.5 1172.1,424.7C1171.97,424.9 1171.83,425.167 1171.7,425.5C1171.57,425.833 1171.43,426.133 1171.3,426.4C1158.5,447.6 1148.57,471.467 1141.5,498L1140.9,499.4L1145.9,499.6C1146.97,499.733 1148.87,499.8 1151.6,499.8C1154.33,499.8 1157.23,499.167 1160.3,497.9C1163.37,496.633 1165.33,495.267 1166.2,493.8C1167.07,492.333 1167.83,492 1168.5,492.8C1169.17,493.6 1169.23,494.467 1168.7,495.4C1167.23,498.067 1164.63,500 1160.9,501.2C1157.7,502.533 1154.53,503.2 1151.4,503.2L1145.3,503.2L1139.9,503C1137.37,514.6 1136.1,523.833 1136.1,530.7C1136.1,537.567 1137.97,541 1141.7,541C1145.3,541 1150.9,538.133 1158.5,532.4C1166.1,526.667 1173.23,519.267 1179.9,510.2C1180,510.07 1180.1,509.963 1180.22,509.881C1182.82,502.451 1184.42,497.957 1185,496.4C1185.6,494.8 1186,493.433 1186.2,492.3C1186.4,491.167 1186.63,490.2 1186.9,489.4C1187.17,488.6 1187.67,487.7 1188.4,486.7C1189.13,485.7 1190.1,485.167 1191.3,485.1C1192.5,485.033 1194.03,485.167 1195.9,485.5C1197.77,485.833 1198.7,486.667 1198.7,488C1198.7,488.933 1197.97,490.967 1196.5,494.1C1195.03,497.233 1190.83,508 1183.9,526.4C1188.7,520.533 1194.77,513.767 1202.1,506.1C1209.43,498.433 1215.63,492.6 1220.7,488.6C1225.77,485 1229.9,483.2 1233.1,483.2C1236.17,483.2 1237.7,484.833 1237.7,488.1C1237.7,491.367 1236.17,495.867 1233.1,501.6C1230.03,507.333 1227.77,512 1226.3,515.6C1223.77,521.733 1222.5,526.633 1222.5,530.3C1222.5,533.967 1223.03,536.4 1224.1,537.6C1226.1,539.733 1228.83,539.833 1232.3,537.9C1235.77,535.967 1240.6,532.233 1246.8,526.7C1253,521.167 1257.97,515.733 1261.7,510.4C1261.77,510.311 1261.85,510.231 1261.92,510.159C1264.58,502.563 1266.21,497.977 1266.8,496.4C1267.4,494.8 1267.8,493.433 1268,492.3C1268.2,491.167 1268.43,490.2 1268.7,489.4C1268.97,488.6 1269.47,487.7 1270.2,486.7C1270.93,485.7 1271.9,485.167 1273.1,485.1C1274.3,485.033 1275.83,485.167 1277.7,485.5C1279.57,485.833 1280.5,486.667 1280.5,488C1280.5,488.933 1279.77,490.967 1278.3,494.1C1276.83,497.233 1272.63,508 1265.7,526.4C1270.5,520.533 1276.57,513.767 1283.9,506.1C1291.23,498.433 1297.43,492.6 1302.5,488.6C1307.57,485 1311.7,483.2 1314.9,483.2C1317.97,483.2 1319.5,484.833 1319.5,488.1C1319.5,491.367 1317.97,495.867 1314.9,501.6C1311.83,507.333 1309.57,512 1308.1,515.6C1305.57,521.733 1304.3,526.633 1304.3,530.3C1304.3,533.967 1304.83,536.4 1305.9,537.6C1307.9,539.733 1310.63,539.833 1314.1,537.9C1317.57,535.967 1322.4,532.233 1328.6,526.7C1334.8,521.167 1339.77,515.733 1343.5,510.4C1343.65,510.206 1343.82,510.054 1343.99,509.945C1347.91,504.657 1353.62,499.275 1361.1,493.8C1372.03,485.8 1380.7,481.8 1387.1,481.8C1394.3,481.8 1397.9,485.267 1397.9,492.2C1397.9,495.8 1396.9,498.733 1394.9,501C1391.57,505.933 1386.17,510.233 1378.7,513.9C1371.23,517.567 1364.9,519.6 1359.7,520C1357.83,520.133 1356.83,519.6 1356.7,518.4C1356.57,517.867 1356.73,517.533 1357.2,517.4C1357.67,517.267 1358.03,517.2 1358.3,517.2C1361.37,516.933 1365.3,515.467 1370.1,512.8C1379.03,508 1385.57,503.067 1389.7,498C1391.43,495.6 1392.3,493.3 1392.3,491.1C1392.3,488.9 1391.23,487.8 1389.1,487.8C1387.37,487.8 1385.03,488.533 1382.1,490C1375.83,492.933 1369.23,498.033 1362.3,505.3C1355.37,512.567 1350.83,519.667 1348.7,526.6C1348.03,528.733 1347.7,530.833 1347.7,532.9C1347.7,534.967 1348.57,536.933 1350.3,538.8C1352.03,540.667 1354.7,541.6 1358.3,541.6C1362.3,541.6 1366.9,540.533 1372.1,538.4C1387.17,532.267 1398.77,523 1406.9,510.6C1407.7,509.533 1408.43,509.333 1409.1,510C1409.63,510.267 1409.9,510.6 1409.9,511C1409.9,511.4 1409.7,511.867 1409.3,512.4C1405.3,519.067 1400.23,525 1394.1,530.2C1382.23,540.333 1370.7,545.4 1359.5,545.4C1349.9,545.4 1343.17,542.533 1339.3,536.8C1337.83,534.533 1337.1,531.8 1337.1,528.6C1337.1,526.906 1337.34,525.044 1337.83,523.013C1337.03,523.913 1336.19,524.842 1335.3,525.8C1330.1,531.4 1325.1,535.9 1320.3,539.3C1315.5,542.7 1310.77,544.4 1306.1,544.4C1301.57,544.267 1298.37,543.233 1296.5,541.3C1294.63,539.367 1293.7,536.933 1293.7,534C1293.7,531.067 1293.97,528.233 1294.5,525.5C1295.03,522.767 1296.03,519.6 1297.5,516C1299.9,510.267 1302,505.8 1303.8,502.6C1305.6,499.4 1306.5,497.3 1306.5,496.3C1306.5,495.3 1305.97,494.8 1304.9,494.8C1302.77,494.8 1298.7,497.4 1292.7,502.6C1288.57,506.467 1282.47,513.767 1274.4,524.5C1266.33,535.233 1261.77,540.933 1260.7,541.6C1255.9,544 1252.9,545.2 1251.7,545.2C1250.5,545.2 1249.9,545 1249.9,544.6C1249.9,544.2 1250.03,543.633 1250.3,542.9C1250.57,542.167 1251.87,538.533 1254.2,532C1255.52,528.308 1256.9,524.414 1258.35,520.317C1256.92,522.024 1255.31,523.851 1253.5,525.8C1248.3,531.4 1243.3,535.9 1238.5,539.3C1233.7,542.7 1228.97,544.4 1224.3,544.4C1219.77,544.267 1216.57,543.233 1214.7,541.3C1212.83,539.367 1211.9,536.933 1211.9,534C1211.9,531.067 1212.17,528.233 1212.7,525.5C1213.23,522.767 1214.23,519.6 1215.7,516C1218.1,510.267 1220.2,505.8 1222,502.6C1223.8,499.4 1224.7,497.3 1224.7,496.3C1224.7,495.3 1224.17,494.8 1223.1,494.8C1220.97,494.8 1216.9,497.4 1210.9,502.6C1206.77,506.467 1200.67,513.767 1192.6,524.5C1184.53,535.233 1179.97,540.933 1178.9,541.6C1174.1,544 1171.1,545.2 1169.9,545.2C1168.7,545.2 1168.1,545 1168.1,544.6C1168.1,544.2 1168.23,543.633 1168.5,542.9C1168.77,542.167 1170.07,538.533 1172.4,532C1173.77,528.175 1175.2,524.134 1176.7,519.876ZM570.1,529L584.7,530.2C600.567,525.533 613.867,515.233 624.6,499.3C635.333,483.367 640.7,468.2 640.7,453.8C640.7,439.4 635.5,430.2 625.1,426.2C621.767,425 618.1,424.4 614.1,424.4C610.1,424.4 605.833,424.933 601.3,426C587.3,429.2 573.967,439.467 561.3,456.8C548.633,474.133 542.3,490.867 542.3,507C542.3,520.733 546.633,530.933 555.3,537.6C562.367,543.067 571.5,545.8 582.7,545.8C588.567,545.8 593.767,545.267 598.3,544.2C593.5,540.867 588.3,538.2 582.7,536.2C576.7,537.8 573.067,538.6 571.8,538.6L569.5,538.6C567.367,538.467 565.867,537.633 565,536.1C564.133,534.567 564.2,533.033 565.2,531.5C566.2,529.967 567.833,529.133 570.1,529ZM751.305,522.7C750.429,523.696 749.494,524.73 748.5,525.8C743.3,531.4 738.633,535.733 734.5,538.8C729.167,542.667 723.367,544.6 717.1,544.6C715.9,544.6 714.333,544.033 712.4,542.9C710.467,541.767 709.167,540.133 708.5,538C707.833,535.867 707.5,533.8 707.5,531.8C707.5,524.867 708.833,518 711.5,511.2C711.1,511.467 709.267,514.3 706,519.7C702.733,525.1 698.733,530.2 694,535C689.267,539.8 684.5,542.2 679.7,542.2C677.433,542.2 674.833,541.6 671.9,540.4C666.567,538 663.9,533.6 663.9,527.2C663.9,519.333 666.6,511.233 672,502.9C677.4,494.567 680.833,490.133 682.3,489.6C684.3,489.067 686.2,488.8 688,488.8C689.8,488.8 691.633,489.167 693.5,489.9C695.367,490.633 695.1,491.867 692.7,493.6C683.5,502 676.967,511.333 673.1,521.6C671.633,525.6 670.9,528.967 670.9,531.7C670.9,534.433 671.6,536.2 673,537C674.4,537.8 675.767,538.2 677.1,538.2C680.3,538.2 684.667,535.967 690.2,531.5C695.733,527.033 703.367,517.733 713.1,503.6C714.433,501.6 716.767,497.7 720.1,491.9C723.433,486.1 725.433,482.667 726.1,481.6C728.233,481.6 730.733,482.1 733.6,483.1C736.467,484.1 737.433,485.4 736.5,487C730.1,497.667 725.6,505.533 723,510.6C720.4,515.667 718.633,521.6 717.7,528.4C717.567,529.6 717.5,531.133 717.5,533C717.5,534.867 718.033,536.4 719.1,537.6C721.1,539.733 723.867,539.833 727.4,537.9C730.933,535.967 735.767,532.233 741.9,526.7C748.033,521.167 752.967,515.733 756.7,510.4C756.946,510.093 757.213,509.892 757.502,509.797C761.421,504.556 767.087,499.224 774.5,493.8C785.433,485.8 794.1,481.8 800.5,481.8C807.7,481.8 811.3,485.267 811.3,492.2C811.3,495.8 810.3,498.733 808.3,501C804.967,505.933 799.567,510.233 792.1,513.9C784.633,517.567 778.3,519.6 773.1,520C771.233,520.133 770.233,519.6 770.1,518.4C769.967,517.867 770.133,517.533 770.6,517.4C771.067,517.267 771.433,517.2 771.7,517.2C774.767,516.933 778.7,515.467 783.5,512.8C792.433,508 798.967,503.067 803.1,498C804.833,495.6 805.7,493.3 805.7,491.1C805.7,488.9 804.633,487.8 802.5,487.8C800.767,487.8 798.433,488.533 795.5,490C789.233,492.933 782.633,498.033 775.7,505.3C768.767,512.567 764.233,519.667 762.1,526.6C761.433,528.733 761.1,530.833 761.1,532.9C761.1,534.967 761.967,536.933 763.7,538.8C765.433,540.667 768.1,541.6 771.7,541.6C775.7,541.6 780.3,540.533 785.5,538.4C800.567,532.267 812.167,523 820.3,510.6C820.682,510.091 821.049,509.779 821.401,509.665C825.317,504.466 830.95,499.178 838.3,493.8C849.233,485.8 857.9,481.8 864.3,481.8C871.5,481.8 875.1,485.267 875.1,492.2C875.1,495.8 874.1,498.733 872.1,501C868.767,505.933 863.367,510.233 855.9,513.9C848.433,517.567 842.1,519.6 836.9,520C835.033,520.133 834.033,519.6 833.9,518.4C833.767,517.867 833.933,517.533 834.4,517.4C834.867,517.267 835.233,517.2 835.5,517.2C838.567,516.933 842.5,515.467 847.3,512.8C856.233,508 862.767,503.067 866.9,498C868.633,495.6 869.5,493.3 869.5,491.1C869.5,488.9 868.433,487.8 866.3,487.8C864.567,487.8 862.233,488.533 859.3,490C853.033,492.933 846.433,498.033 839.5,505.3C832.567,512.567 828.033,519.667 825.9,526.6C825.233,528.733 824.9,530.833 824.9,532.9C824.9,534.967 825.767,536.933 827.5,538.8C829.233,540.667 831.9,541.6 835.5,541.6C839.5,541.6 844.1,540.533 849.3,538.4C864.367,532.267 875.967,523 884.1,510.6C884.348,510.269 884.59,510.022 884.825,509.858C887.425,502.441 889.017,497.956 889.6,496.4C890.2,494.8 890.6,493.433 890.8,492.3C891,491.167 891.233,490.2 891.5,489.4C891.767,488.6 892.267,487.7 893,486.7C893.733,485.7 894.7,485.167 895.9,485.1C897.1,485.033 898.633,485.167 900.5,485.5C902.367,485.833 903.3,486.667 903.3,488C903.3,488.933 902.567,490.967 901.1,494.1C899.633,497.233 895.433,508 888.5,526.4C893.3,520.533 899.367,513.767 906.7,506.1C914.033,498.433 920.233,492.6 925.3,488.6C930.367,485 934.5,483.2 937.7,483.2C940.767,483.2 942.3,484.833 942.3,488.1C942.3,491.367 940.767,495.867 937.7,501.6C934.633,507.333 932.367,512 930.9,515.6C928.367,521.733 927.1,526.633 927.1,530.3C927.1,533.967 927.633,536.4 928.7,537.6C930.7,539.733 933.433,539.833 936.9,537.9C940.367,535.967 945.2,532.233 951.4,526.7C957.6,521.167 962.567,515.733 966.3,510.4C966.833,509.733 967.467,509.567 968.2,509.9C968.933,510.233 969.3,510.567 969.3,510.9C969.3,511.233 969.167,511.6 968.9,512C966.9,515.6 963.3,520.2 958.1,525.8C952.9,531.4 947.9,535.9 943.1,539.3C938.3,542.7 933.567,544.4 928.9,544.4C924.367,544.267 921.167,543.233 919.3,541.3C917.433,539.367 916.5,536.933 916.5,534C916.5,531.067 916.767,528.233 917.3,525.5C917.833,522.767 918.833,519.6 920.3,516C922.7,510.267 924.8,505.8 926.6,502.6C928.4,499.4 929.3,497.3 929.3,496.3C929.3,495.3 928.767,494.8 927.7,494.8C925.567,494.8 921.5,497.4 915.5,502.6C911.367,506.467 905.267,513.767 897.2,524.5C889.133,535.233 884.567,540.933 883.5,541.6C878.7,544 875.7,545.2 874.5,545.2C873.3,545.2 872.7,545 872.7,544.6C872.7,544.2 872.833,543.633 873.1,542.9C873.367,542.167 874.667,538.533 877,532C878.361,528.19 879.789,524.165 881.286,519.925C878.35,523.62 875.021,527.045 871.3,530.2C859.433,540.333 847.9,545.4 836.7,545.4C827.1,545.4 820.367,542.533 816.5,536.8C815.033,534.533 814.3,531.8 814.3,528.6C814.3,526.844 814.561,524.908 815.083,522.79C812.768,525.407 810.24,527.877 807.5,530.2C795.633,540.333 784.1,545.4 772.9,545.4C763.3,545.4 756.567,542.533 752.7,536.8C751.233,534.533 750.5,531.8 750.5,528.6C750.5,526.819 750.768,524.853 751.305,522.7ZM1149.9,444.4C1150.03,444.133 1150.2,443.767 1150.4,443.3C1150.6,442.833 1150.77,442.467 1150.9,442.2C1134.23,465 1120.83,482.6 1110.7,495L1131.7,498.4C1135.43,483.867 1141.5,465.867 1149.9,444.4Z" style="fill:rgb(10,43,90);fill-rule:nonzero;stroke:rgb(10,43,90);stroke-width:1px;"/>
    </g>
</svg>
