<?xml version="1.0" encoding="UTF-8" standalone="no"?>
<!DOCTYPE svg PUBLIC "-//W3C//DTD SVG 1.1//EN" "http://www.w3.org/Graphics/SVG/1.1/DTD/svg11.dtd">
<svg width="100%" height="100%" viewBox="0 0 281 53" version="1.1" xmlns="http://www.w3.org/2000/svg" xmlns:xlink="http://www.w3.org/1999/xlink" xml:space="preserve" xmlns:serif="http://www.serif.com/" style="fill-rule:evenodd;clip-rule:evenodd;stroke-linejoin:round;stroke-miterlimit:2;">
    <g transform="matrix(1,0,0,1,-2196.47,-2301.92)">
        <path d="M2237.49,2319.39C2238.09,2316.83 2238.39,2314.41 2238.39,2312.13C2238.39,2309.84 2237.85,2307.9 2236.76,2306.3C2235.67,2304.7 2234.12,2303.82 2232.12,2303.65C2231.48,2303.6 2231.15,2303.48 2231.12,2303.26C2231.1,2303.05 2231.24,2302.88 2231.54,2302.75C2231.84,2302.62 2232.14,2302.58 2232.44,2302.62C2235.38,2303.05 2237.48,2304.32 2238.74,2306.43C2240,2308.54 2240.63,2311.05 2240.63,2313.95C2240.63,2319.67 2238.64,2325.36 2234.64,2331.04C2230.66,2336.71 2226.06,2340.51 2220.85,2342.43C2227.12,2346.48 2231.73,2348.98 2234.68,2349.92C2237.79,2350.94 2240.65,2351.45 2243.25,2351.45C2246.54,2351.45 2249.23,2350.62 2251.32,2348.96C2252.43,2348.11 2252.98,2347.2 2252.98,2346.24C2252.98,2345.28 2252.78,2344.44 2252.37,2343.71C2251.97,2342.99 2252,2342.61 2252.47,2342.59C2252.94,2342.57 2253.28,2342.79 2253.49,2343.26C2254.18,2344.59 2254.52,2346.29 2254.52,2348.38C2254.43,2349.96 2253.66,2351.38 2252.21,2352.64C2250.76,2353.9 2248.82,2354.61 2246.39,2354.78C2245.79,2354.83 2245.03,2354.85 2244.12,2354.85C2243.2,2354.85 2241.97,2354.71 2240.44,2354.43C2238.9,2354.15 2237.45,2353.78 2236.09,2353.31C2234.72,2352.84 2233.12,2352.08 2231.28,2351.04C2229.45,2349.99 2228.09,2349.16 2227.19,2348.54C2226.29,2347.92 2224.92,2346.93 2223.06,2345.57C2221.2,2344.2 2220,2343.33 2219.45,2342.94C2217.65,2343.41 2216.33,2343.65 2215.48,2343.65C2214.62,2343.65 2214.16,2343.65 2214.07,2343.65C2208.91,2343.65 2204.68,2342.26 2201.4,2339.49C2198.11,2336.71 2196.47,2332.87 2196.47,2327.97C2196.47,2321.82 2198.67,2316.33 2203.06,2311.49C2207.46,2306.64 2212.34,2303.63 2217.72,2302.43C2219.25,2302.09 2220.58,2301.92 2221.68,2301.92C2224.89,2301.92 2227.55,2302.86 2229.68,2304.74C2232.33,2307.08 2233.65,2310.52 2233.65,2315.04C2233.65,2319.48 2232.35,2323.7 2229.75,2327.71C2225.78,2333.73 2220.49,2337.31 2213.88,2338.46C2213.92,2338.51 2214.5,2338.74 2215.61,2339.17L2219,2341.28C2223.39,2339.87 2227.26,2337.12 2230.61,2333.02C2233.96,2328.93 2236.26,2324.38 2237.49,2319.39ZM2402.68,2333.88C2401.04,2335.91 2399.1,2337.84 2396.85,2339.68C2394.98,2341.17 2392.89,2341.92 2390.58,2341.92C2389.26,2341.92 2388.3,2341.33 2387.7,2340.16C2387.1,2338.99 2386.8,2337.49 2386.8,2335.68C2386.8,2333.87 2387.19,2331.38 2387.96,2328.22C2386.46,2328.1 2383.93,2327.8 2380.34,2327.33C2374.41,2334.67 2369.48,2339.76 2365.56,2342.62C2362.19,2345.14 2358.69,2346.4 2355.06,2346.4C2352.76,2346.4 2350.78,2345.82 2349.14,2344.67C2347.5,2343.52 2346.68,2341.81 2346.68,2339.55C2346.68,2339.12 2346.78,2338.73 2347,2338.37C2347.21,2338 2347.42,2337.91 2347.64,2338.08C2347.85,2338.25 2347.96,2338.74 2347.96,2339.55C2347.96,2341 2348.52,2342.09 2349.65,2342.82C2350.78,2343.54 2352.16,2343.9 2353.78,2343.9C2357.28,2343.9 2360.72,2342.76 2364.12,2340.48C2367.51,2338.2 2372.13,2333.73 2377.97,2327.07C2371.7,2326.3 2367.56,2325.92 2365.56,2325.92C2360.14,2325.92 2356.79,2327.69 2355.51,2331.23C2355.34,2331.7 2355.25,2332.14 2355.25,2332.54C2355.25,2332.95 2355.34,2333.31 2355.51,2333.63C2355.68,2333.95 2355.71,2334.21 2355.61,2334.4C2355.5,2334.59 2355.32,2334.68 2355.06,2334.66C2354.8,2334.63 2354.59,2334.49 2354.42,2334.24C2353.95,2333.43 2353.72,2332.64 2353.72,2331.87C2353.72,2329.23 2354.2,2327.27 2355.16,2326.01C2356.12,2324.76 2357.24,2323.96 2358.52,2323.62C2360.05,2323.19 2361.85,2322.97 2363.89,2322.97C2365.94,2322.97 2371.1,2323.79 2379.38,2325.41C2381.68,2322.76 2385.18,2318.51 2389.88,2312.64C2394.57,2306.77 2396.92,2303.8 2396.92,2303.71L2396.98,2303.71C2397.02,2303.67 2397.13,2303.6 2397.3,2303.52C2398.33,2302.92 2399.43,2302.62 2400.63,2302.62C2401.06,2302.62 2401.27,2302.84 2401.27,2303.26C2401.27,2303.31 2401.25,2303.36 2401.2,2303.42C2401.16,2303.49 2401.12,2303.57 2401.08,2303.68C2401.03,2303.79 2400.99,2303.88 2400.95,2303.97C2396.85,2310.75 2393.68,2318.39 2391.41,2326.88L2391.22,2327.33L2392.82,2327.39C2393.16,2327.43 2393.77,2327.45 2394.64,2327.45C2395.52,2327.45 2396.45,2327.25 2397.43,2326.85C2398.41,2326.44 2399.04,2326 2399.32,2325.53C2399.6,2325.07 2399.84,2324.96 2400.05,2325.22C2400.27,2325.47 2400.29,2325.75 2400.12,2326.05C2399.65,2326.9 2398.82,2327.52 2397.62,2327.9C2396.6,2328.33 2395.58,2328.54 2394.58,2328.54L2392.63,2328.54L2390.9,2328.48C2390.09,2332.19 2389.68,2335.15 2389.68,2337.34C2389.68,2339.54 2390.28,2340.64 2391.48,2340.64C2392.63,2340.64 2394.42,2339.72 2396.85,2337.89C2399.28,2336.05 2401.57,2333.68 2403.7,2330.78C2403.73,2330.74 2403.77,2330.71 2403.8,2330.68C2404.64,2328.3 2405.15,2326.87 2405.33,2326.37C2405.53,2325.86 2405.65,2325.42 2405.72,2325.05C2405.78,2324.69 2405.86,2324.38 2405.94,2324.13C2406.03,2323.87 2406.19,2323.58 2406.42,2323.26C2406.66,2322.94 2406.97,2322.77 2407.35,2322.75C2407.73,2322.73 2408.22,2322.77 2408.82,2322.88C2409.42,2322.99 2409.72,2323.25 2409.72,2323.68C2409.72,2323.98 2409.48,2324.63 2409.01,2325.63C2408.54,2326.63 2407.2,2330.08 2404.98,2335.97C2406.52,2334.09 2408.46,2331.92 2410.8,2329.47C2413.15,2327.02 2415.14,2325.15 2416.76,2323.87C2418.38,2322.72 2419.7,2322.14 2420.72,2322.14C2421.71,2322.14 2422.2,2322.67 2422.2,2323.71C2422.2,2324.76 2421.71,2326.2 2420.72,2328.03C2419.74,2329.87 2419.02,2331.36 2418.55,2332.51C2417.74,2334.47 2417.33,2336.04 2417.33,2337.22C2417.33,2338.39 2417.5,2339.17 2417.85,2339.55C2418.49,2340.23 2419.36,2340.27 2420.47,2339.65C2421.58,2339.03 2423.12,2337.83 2425.11,2336.06C2427.09,2334.29 2428.68,2332.55 2429.88,2330.85C2429.9,2330.82 2429.92,2330.79 2429.95,2330.77C2430.8,2328.34 2431.32,2326.87 2431.51,2326.37C2431.7,2325.86 2431.83,2325.42 2431.89,2325.05C2431.96,2324.69 2432.03,2324.38 2432.12,2324.13C2432.2,2323.87 2432.36,2323.58 2432.6,2323.26C2432.83,2322.94 2433.14,2322.77 2433.53,2322.75C2433.91,2322.73 2434.4,2322.77 2435,2322.88C2435.6,2322.99 2435.89,2323.25 2435.89,2323.68C2435.89,2323.98 2435.66,2324.63 2435.19,2325.63C2434.72,2326.63 2433.38,2330.08 2431.16,2335.97C2432.69,2334.09 2434.64,2331.92 2436.98,2329.47C2439.33,2327.02 2441.31,2325.15 2442.93,2323.87C2444.55,2322.72 2445.88,2322.14 2446.9,2322.14C2447.88,2322.14 2448.37,2322.67 2448.37,2323.71C2448.37,2324.76 2447.88,2326.2 2446.9,2328.03C2445.92,2329.87 2445.2,2331.36 2444.72,2332.51C2443.91,2334.47 2443.51,2336.04 2443.51,2337.22C2443.51,2338.39 2443.68,2339.17 2444.02,2339.55C2444.66,2340.23 2445.54,2340.27 2446.64,2339.65C2447.76,2339.03 2449.3,2337.83 2451.28,2336.06C2453.27,2334.29 2454.86,2332.55 2456.05,2330.85C2456.1,2330.78 2456.16,2330.74 2456.21,2330.7C2457.47,2329.01 2459.29,2327.29 2461.68,2325.53C2465.18,2322.97 2467.96,2321.7 2470.01,2321.7C2472.31,2321.7 2473.46,2322.8 2473.46,2325.02C2473.46,2326.18 2473.14,2327.11 2472.5,2327.84C2471.43,2329.42 2469.71,2330.79 2467.32,2331.97C2464.93,2333.14 2462.9,2333.79 2461.24,2333.92C2460.64,2333.96 2460.32,2333.79 2460.28,2333.41C2460.24,2333.24 2460.29,2333.13 2460.44,2333.09C2460.59,2333.04 2460.7,2333.02 2460.79,2333.02C2461.77,2332.94 2463.03,2332.47 2464.57,2331.62C2467.42,2330.08 2469.51,2328.5 2470.84,2326.88C2471.39,2326.11 2471.67,2325.38 2471.67,2324.67C2471.67,2323.97 2471.33,2323.62 2470.64,2323.62C2470.09,2323.62 2469.34,2323.85 2468.41,2324.32C2466.4,2325.26 2464.29,2326.89 2462.07,2329.22C2459.85,2331.54 2458.4,2333.81 2457.72,2336.03C2457.5,2336.71 2457.4,2337.39 2457.4,2338.05C2457.4,2338.71 2457.68,2339.34 2458.23,2339.93C2458.78,2340.53 2459.64,2340.83 2460.79,2340.83C2462.07,2340.83 2463.54,2340.49 2465.2,2339.81C2470.03,2337.84 2473.74,2334.88 2476.34,2330.91C2476.6,2330.57 2476.83,2330.51 2477.05,2330.72C2477.22,2330.8 2477.3,2330.91 2477.3,2331.04C2477.3,2331.17 2477.24,2331.32 2477.11,2331.49C2475.83,2333.62 2474.21,2335.52 2472.24,2337.18C2468.45,2340.43 2464.76,2342.05 2461.17,2342.05C2458.1,2342.05 2455.95,2341.13 2454.71,2339.3C2454.24,2338.57 2454.01,2337.7 2454.01,2336.67C2454.01,2336.13 2454.08,2335.53 2454.24,2334.88C2453.98,2335.17 2453.71,2335.47 2453.43,2335.78C2451.76,2337.57 2450.16,2339.01 2448.63,2340.1C2447.09,2341.18 2445.58,2341.73 2444.09,2341.73C2442.64,2341.68 2441.61,2341.35 2441.01,2340.74C2440.42,2340.12 2440.12,2339.34 2440.12,2338.4C2440.12,2337.46 2440.2,2336.55 2440.37,2335.68C2440.54,2334.8 2440.86,2333.79 2441.33,2332.64C2442.1,2330.8 2442.77,2329.38 2443.35,2328.35C2443.93,2327.33 2444.21,2326.66 2444.21,2326.34C2444.21,2326.01 2444.04,2325.86 2443.7,2325.86C2443.02,2325.86 2441.72,2326.69 2439.8,2328.35C2438.47,2329.59 2436.52,2331.92 2433.94,2335.36C2431.36,2338.79 2429.9,2340.62 2429.56,2340.83C2428.02,2341.6 2427.06,2341.98 2426.68,2341.98C2426.29,2341.98 2426.1,2341.92 2426.1,2341.79C2426.1,2341.66 2426.14,2341.48 2426.23,2341.25C2426.32,2341.01 2426.73,2339.85 2427.48,2337.76C2427.9,2336.58 2428.34,2335.33 2428.8,2334.02C2428.35,2334.57 2427.83,2335.15 2427.25,2335.78C2425.59,2337.57 2423.99,2339.01 2422.45,2340.1C2420.92,2341.18 2419.4,2341.73 2417.91,2341.73C2416.46,2341.68 2415.43,2341.35 2414.84,2340.74C2414.24,2340.12 2413.94,2339.34 2413.94,2338.4C2413.94,2337.46 2414.03,2336.55 2414.2,2335.68C2414.37,2334.8 2414.69,2333.79 2415.16,2332.64C2415.93,2330.8 2416.6,2329.38 2417.17,2328.35C2417.75,2327.33 2418.04,2326.66 2418.04,2326.34C2418.04,2326.01 2417.87,2325.86 2417.53,2325.86C2416.84,2325.86 2415.54,2326.69 2413.62,2328.35C2412.3,2329.59 2410.35,2331.92 2407.76,2335.36C2405.18,2338.79 2403.72,2340.62 2403.38,2340.83C2401.85,2341.6 2400.89,2341.98 2400.5,2341.98C2400.12,2341.98 2399.93,2341.92 2399.93,2341.79C2399.93,2341.66 2399.97,2341.48 2400.05,2341.25C2400.14,2341.01 2400.55,2339.85 2401.3,2337.76C2401.74,2336.53 2402.2,2335.24 2402.68,2333.88ZM2208.57,2336.8L2213.24,2337.18C2218.32,2335.69 2222.57,2332.39 2226.01,2327.3C2229.44,2322.2 2231.16,2317.34 2231.16,2312.74C2231.16,2308.13 2229.49,2305.18 2226.16,2303.9C2225.1,2303.52 2223.93,2303.33 2222.64,2303.33C2221.37,2303.33 2220,2303.5 2218.55,2303.84C2214.07,2304.86 2209.8,2308.15 2205.75,2313.7C2201.7,2319.24 2199.67,2324.6 2199.67,2329.76C2199.67,2334.15 2201.06,2337.42 2203.83,2339.55C2206.09,2341.3 2209.01,2342.18 2212.6,2342.18C2214.47,2342.18 2216.14,2342 2217.59,2341.66C2216.05,2340.6 2214.39,2339.74 2212.6,2339.1C2210.68,2339.62 2209.51,2339.87 2209.11,2339.87L2208.37,2339.87C2207.69,2339.83 2207.21,2339.56 2206.93,2339.07C2206.66,2338.58 2206.68,2338.09 2207,2337.6C2207.32,2337.11 2207.84,2336.84 2208.57,2336.8ZM2266.55,2334.78C2266.27,2335.1 2265.97,2335.43 2265.65,2335.78C2263.99,2337.57 2262.5,2338.95 2261.17,2339.93C2259.47,2341.17 2257.61,2341.79 2255.61,2341.79C2255.22,2341.79 2254.72,2341.61 2254.1,2341.25C2253.48,2340.88 2253.07,2340.36 2252.85,2339.68C2252.64,2339 2252.53,2338.34 2252.53,2337.7C2252.53,2335.48 2252.96,2333.28 2253.81,2331.1C2253.68,2331.19 2253.1,2332.1 2252.05,2333.82C2251.01,2335.55 2249.73,2337.18 2248.21,2338.72C2246.7,2340.26 2245.17,2341.02 2243.64,2341.02C2242.91,2341.02 2242.08,2340.83 2241.14,2340.45C2239.43,2339.68 2238.58,2338.27 2238.58,2336.22C2238.58,2333.71 2239.45,2331.11 2241.17,2328.45C2242.9,2325.78 2244,2324.36 2244.47,2324.19C2245.11,2324.02 2245.72,2323.93 2246.29,2323.93C2246.87,2323.93 2247.46,2324.05 2248.05,2324.29C2248.65,2324.52 2248.57,2324.92 2247.8,2325.47C2244.85,2328.16 2242.76,2331.15 2241.53,2334.43C2241.06,2335.71 2240.82,2336.79 2240.82,2337.66C2240.82,2338.54 2241.05,2339.1 2241.49,2339.36C2241.94,2339.62 2242.38,2339.74 2242.8,2339.74C2243.83,2339.74 2245.23,2339.03 2247,2337.6C2248.77,2336.17 2251.21,2333.19 2254.33,2328.67C2254.75,2328.03 2255.5,2326.78 2256.57,2324.93C2257.63,2323.07 2258.27,2321.97 2258.49,2321.63C2259.17,2321.63 2259.97,2321.79 2260.89,2322.11C2261.8,2322.43 2262.11,2322.85 2261.81,2323.36C2259.76,2326.77 2258.33,2329.29 2257.49,2330.91C2256.66,2332.53 2256.1,2334.43 2255.8,2336.61C2255.76,2336.99 2255.73,2337.48 2255.73,2338.08C2255.73,2338.68 2255.9,2339.17 2256.24,2339.55C2256.89,2340.23 2257.77,2340.27 2258.9,2339.65C2260.03,2339.03 2261.58,2337.83 2263.54,2336.06C2265.5,2334.29 2267.08,2332.55 2268.28,2330.85C2268.36,2330.75 2268.44,2330.68 2268.53,2330.65C2269.79,2328.98 2271.6,2327.27 2273.97,2325.53C2277.47,2322.97 2280.24,2321.7 2282.29,2321.7C2284.6,2321.7 2285.75,2322.8 2285.75,2325.02C2285.75,2326.18 2285.43,2327.11 2284.79,2327.84C2283.72,2329.42 2281.99,2330.79 2279.61,2331.97C2277.22,2333.14 2275.19,2333.79 2273.53,2333.92C2272.93,2333.96 2272.61,2333.79 2272.57,2333.41C2272.52,2333.24 2272.58,2333.13 2272.72,2333.09C2272.88,2333.04 2272.99,2333.02 2273.08,2333.02C2274.06,2332.94 2275.32,2332.47 2276.85,2331.62C2279.71,2330.08 2281.8,2328.5 2283.12,2326.88C2283.68,2326.11 2283.96,2325.38 2283.96,2324.67C2283.96,2323.97 2283.62,2323.62 2282.93,2323.62C2282.38,2323.62 2281.63,2323.85 2280.69,2324.32C2278.69,2325.26 2276.58,2326.89 2274.36,2329.22C2272.14,2331.54 2270.69,2333.81 2270.01,2336.03C2269.79,2336.71 2269.68,2337.39 2269.68,2338.05C2269.68,2338.71 2269.96,2339.34 2270.52,2339.93C2271.07,2340.53 2271.93,2340.83 2273.08,2340.83C2274.36,2340.83 2275.83,2340.49 2277.49,2339.81C2282.32,2337.84 2286.03,2334.88 2288.63,2330.91C2288.75,2330.75 2288.87,2330.65 2288.98,2330.61C2290.24,2328.95 2292.04,2327.26 2294.39,2325.53C2297.89,2322.97 2300.66,2321.7 2302.71,2321.7C2305.01,2321.7 2306.16,2322.8 2306.16,2325.02C2306.16,2326.18 2305.85,2327.11 2305.2,2327.84C2304.14,2329.42 2302.41,2330.79 2300.02,2331.97C2297.63,2333.14 2295.61,2333.79 2293.94,2333.92C2293.34,2333.96 2293.02,2333.79 2292.98,2333.41C2292.94,2333.24 2292.99,2333.13 2293.14,2333.09C2293.29,2333.04 2293.41,2333.02 2293.49,2333.02C2294.47,2332.94 2295.73,2332.47 2297.27,2331.62C2300.13,2330.08 2302.22,2328.5 2303.54,2326.88C2304.1,2326.11 2304.37,2325.38 2304.37,2324.67C2304.37,2323.97 2304.03,2323.62 2303.35,2323.62C2302.8,2323.62 2302.05,2323.85 2301.11,2324.32C2299.1,2325.26 2296.99,2326.89 2294.77,2329.22C2292.55,2331.54 2291.1,2333.81 2290.42,2336.03C2290.21,2336.71 2290.1,2337.39 2290.1,2338.05C2290.1,2338.71 2290.38,2339.34 2290.93,2339.93C2291.49,2340.53 2292.34,2340.83 2293.49,2340.83C2294.77,2340.83 2296.24,2340.49 2297.91,2339.81C2302.73,2337.84 2306.44,2334.88 2309.05,2330.91C2309.12,2330.8 2309.2,2330.73 2309.28,2330.67C2310.11,2328.3 2310.62,2326.87 2310.8,2326.37C2311,2325.86 2311.12,2325.42 2311.19,2325.05C2311.25,2324.69 2311.33,2324.38 2311.41,2324.13C2311.5,2323.87 2311.66,2323.58 2311.89,2323.26C2312.13,2322.94 2312.44,2322.77 2312.82,2322.75C2313.2,2322.73 2313.7,2322.77 2314.29,2322.88C2314.89,2322.99 2315.19,2323.25 2315.19,2323.68C2315.19,2323.98 2314.95,2324.63 2314.49,2325.63C2314.02,2326.63 2312.67,2330.08 2310.45,2335.97C2311.99,2334.09 2313.93,2331.92 2316.28,2329.47C2318.62,2327.02 2320.61,2325.15 2322.23,2323.87C2323.85,2322.72 2325.17,2322.14 2326.2,2322.14C2327.18,2322.14 2327.67,2322.67 2327.67,2323.71C2327.67,2324.76 2327.18,2326.2 2326.2,2328.03C2325.22,2329.87 2324.49,2331.36 2324.02,2332.51C2323.21,2334.47 2322.8,2336.04 2322.8,2337.22C2322.8,2338.39 2322.98,2339.17 2323.32,2339.55C2323.96,2340.23 2324.83,2340.27 2325.94,2339.65C2327.05,2339.03 2328.6,2337.83 2330.58,2336.06C2332.57,2334.29 2334.16,2332.55 2335.35,2330.85C2335.52,2330.63 2335.72,2330.58 2335.96,2330.69C2336.19,2330.79 2336.31,2330.9 2336.31,2331.01C2336.31,2331.11 2336.27,2331.23 2336.18,2331.36C2335.54,2332.51 2334.39,2333.98 2332.72,2335.78C2331.06,2337.57 2329.46,2339.01 2327.93,2340.1C2326.39,2341.18 2324.88,2341.73 2323.38,2341.73C2321.93,2341.68 2320.91,2341.35 2320.31,2340.74C2319.71,2340.12 2319.41,2339.34 2319.41,2338.4C2319.41,2337.46 2319.5,2336.55 2319.67,2335.68C2319.84,2334.8 2320.16,2333.79 2320.63,2332.64C2321.4,2330.8 2322.07,2329.38 2322.64,2328.35C2323.22,2327.33 2323.51,2326.66 2323.51,2326.34C2323.51,2326.01 2323.34,2325.86 2323,2325.86C2322.32,2325.86 2321.01,2326.69 2319.09,2328.35C2317.77,2329.59 2315.82,2331.92 2313.24,2335.36C2310.66,2338.79 2309.2,2340.62 2308.85,2340.83C2307.32,2341.6 2306.36,2341.98 2305.97,2341.98C2305.59,2341.98 2305.4,2341.92 2305.4,2341.79C2305.4,2341.66 2305.44,2341.48 2305.53,2341.25C2305.61,2341.01 2306.03,2339.85 2306.77,2337.76C2307.21,2336.54 2307.67,2335.25 2308.14,2333.89C2307.2,2335.08 2306.14,2336.17 2304.95,2337.18C2301.15,2340.43 2297.46,2342.05 2293.88,2342.05C2290.8,2342.05 2288.65,2341.13 2287.41,2339.3C2286.94,2338.57 2286.71,2337.7 2286.71,2336.67C2286.71,2336.11 2286.79,2335.49 2286.96,2334.81C2286.22,2335.65 2285.41,2336.44 2284.53,2337.18C2280.74,2340.43 2277.05,2342.05 2273.46,2342.05C2270.39,2342.05 2268.24,2341.13 2267,2339.3C2266.53,2338.57 2266.29,2337.7 2266.29,2336.67C2266.29,2336.1 2266.38,2335.47 2266.55,2334.78ZM2394.1,2309.73L2394.42,2309.02C2389.09,2316.32 2384.8,2321.95 2381.56,2325.92L2388.28,2327.01C2389.47,2322.36 2391.41,2316.6 2394.1,2309.73Z" style="fill:rgb(10,43,90);fill-rule:nonzero;"/>
    </g>
</svg>
