<svg viewBox="0 0 750 1334" xmlns="http://www.w3.org/2000/svg" xml:space="preserve" style="fill-rule:evenodd;clip-rule:evenodd;stroke-linejoin:round;stroke-miterlimit:2"><g><path style="fill:none" d="M0 0h750v1334H0z"/><clipPath id="a"><path d="M0 0h750v1334H0z"/></clipPath><g clip-path="url(#a)"><text x="182.97" y="7795.86" style="font-family:'Montserrat-ExtraLight','Montserrat';font-weight:275;font-size:36px;fill:#616d89;stroke:#2b2c30;stroke-width:1px" transform="translate(0 -6874)">Pur<tspan x="246.042px 265.482px" y="7795.86px 7795.86px">ch</tspan>ase at our salon</text><g transform="matrix(.5375 0 0 .5375 95.667 437.708)"><g transform="rotate(15 1184.483 273.222)"><path d="M1039.37 18.605c0-10.269-8.34-18.605-18.6-18.605H18.605C8.336 0 0 8.336 0 18.605v612.397c0 10.268 8.336 18.604 18.605 18.604H1020.77c10.26 0 18.6-8.336 18.6-18.604V18.605z" style="fill:#f5f7f9"/><clipPath id="b"><path d="M1039.37 18.605c0-10.269-8.34-18.605-18.6-18.605H18.605C8.336 0 0 8.336 0 18.605v612.397c0 10.268 8.336 18.604 18.605 18.604H1020.77c10.26 0 18.6-8.336 18.6-18.604V18.605z"/></clipPath><g clip-path="url(#b)"><text x="285.931" y="556.214" style="font-family:'PalaceScriptMT','Palace Script MT',cursive;font-style:italic;font-size:550px;fill:#fff" transform="matrix(.81183 0 0 .81183 0 0)">QA</text><text x="100.386" y="130.789" style="font-family:'Montserrat-Regular','Montserrat';font-size:66.667px" transform="matrix(.89302 0 0 .89302 6.318 6.318)">$25</text><text x="152.176" y="449.841" style="font-family:'EdwardianScriptITC','Edwardian Script ITC',cursive;font-stretch:semi-expanded;font-size:175px" transform="matrix(.89302 0 0 .89302 70.318 -68.727)">Queen Anne</text><text x="319.549" y="554.008" style="font-family:'Montserrat-Regular','Montserrat';font-size:54.167px" transform="matrix(.89302 0 0 .89302 70.318 -68.727)">Nails an<tspan x="534.103" y="554.008">d</tspan> Sp<tspan x="654.895" y="554.008">a</tspan></text></g><path d="M1039.37 18.605c0-10.269-8.34-18.605-18.6-18.605H18.605C8.336 0 0 8.336 0 18.605v612.397c0 10.268 8.336 18.604 18.605 18.604H1020.77c10.26 0 18.6-8.336 18.6-18.604V18.605z" style="fill:none;stroke:#616d89;stroke-width:1.12px;stroke-linecap:round;stroke-miterlimit:1.5"/></g><g transform="rotate(8 1110.988 283.455)"><path d="M1039.37 18.605c0-10.269-8.34-18.605-18.6-18.605H18.605C8.336 0 0 8.336 0 18.605v612.397c0 10.268 8.336 18.604 18.605 18.604H1020.77c10.26 0 18.6-8.336 18.6-18.604V18.605z" style="fill:#f5f7f9"/><clipPath id="c"><path d="M1039.37 18.605c0-10.269-8.34-18.605-18.6-18.605H18.605C8.336 0 0 8.336 0 18.605v612.397c0 10.268 8.336 18.604 18.605 18.604H1020.77c10.26 0 18.6-8.336 18.6-18.604V18.605z"/></clipPath><g clip-path="url(#c)"><text x="285.931" y="556.214" style="font-family:'PalaceScriptMT','Palace Script MT',cursive;font-style:italic;font-size:550px;fill:#fff" transform="matrix(.81183 0 0 .81183 0 0)">QA</text><text x="97.253" y="130.789" style="font-family:'Montserrat-Regular','Montserrat';font-size:66.667px" transform="matrix(.89302 0 0 .89302 6.318 6.318)">$50</text><text x="152.176" y="449.841" style="font-family:'EdwardianScriptITC','Edwardian Script ITC',cursive;font-stretch:semi-expanded;font-size:175px" transform="matrix(.89302 0 0 .89302 70.318 -68.727)">Queen Anne</text><text x="319.549" y="554.008" style="font-family:'Montserrat-Regular','Montserrat';font-size:54.167px" transform="matrix(.89302 0 0 .89302 70.318 -68.727)">Nails an<tspan x="534.103" y="554.008">d</tspan> Sp<tspan x="654.895" y="554.008">a</tspan></text></g><path d="M1039.37 18.605c0-10.269-8.34-18.605-18.6-18.605H18.605C8.336 0 0 8.336 0 18.605v612.397c0 10.268 8.336 18.604 18.605 18.604H1020.77c10.26 0 18.6-8.336 18.6-18.604V18.605z" style="fill:none;stroke:#616d89;stroke-width:1.12px;stroke-linecap:round;stroke-miterlimit:1.5"/></g><path d="M1039.37 18.605c0-10.269-8.34-18.605-18.6-18.605H18.605C8.336 0 0 8.336 0 18.605v612.397c0 10.268 8.336 18.604 18.605 18.604H1020.77c10.26 0 18.6-8.336 18.6-18.604V18.605z" style="fill:#f5f7f9"/><clipPath id="d"><path d="M1039.37 18.605c0-10.269-8.34-18.605-18.6-18.605H18.605C8.336 0 0 8.336 0 18.605v612.397c0 10.268 8.336 18.604 18.605 18.604H1020.77c10.26 0 18.6-8.336 18.6-18.604V18.605z"/></clipPath><g clip-path="url(#d)"><text x="285.931" y="556.214" style="font-family:'PalaceScriptMT','Palace Script MT',cursive;font-style:italic;font-size:550px;fill:#fff" transform="matrix(.81183 0 0 .81183 0 0)">QA</text><text x="100.653" y="130.789" style="font-family:'Montserrat-Regular','Montserrat';font-size:66.667px" transform="matrix(.89302 0 0 .89302 6.318 6.318)">$<tspan x="140.986px 178.986px" y="130.789px 130.789px">75</tspan></text><text x="152.176" y="449.841" style="font-family:'EdwardianScriptITC','Edwardian Script ITC',cursive;font-stretch:semi-expanded;font-size:175px" transform="matrix(.89302 0 0 .89302 70.318 -68.727)">Queen Anne</text><text x="319.549" y="554.008" style="font-family:'Montserrat-Regular','Montserrat';font-size:54.167px" transform="matrix(.89302 0 0 .89302 70.318 -68.727)">Nails an<tspan x="534.103" y="554.008">d</tspan> Sp<tspan x="654.895" y="554.008">a</tspan></text></g><path d="M1039.37 18.605c0-10.269-8.34-18.605-18.6-18.605H18.605C8.336 0 0 8.336 0 18.605v612.397c0 10.268 8.336 18.604 18.605 18.604H1020.77c10.26 0 18.6-8.336 18.6-18.604V18.605z" style="fill:none;stroke:#616d89;stroke-width:1.12px;stroke-linecap:round;stroke-miterlimit:1.5"/></g><path style="fill:#fff" d="M0 0h750v67H0z" transform="matrix(1 0 0 1.35685 0 0)"/><path style="fill:#616d89" d="M1569.7 1351h44v3h-44z" transform="matrix(1.30435 0 0 .98814 -1414.822 -1281.126)"/><path style="fill:#616d89" d="M1569.7 1340h44v3h-44z" transform="matrix(1.30435 0 0 .98814 -1414.822 -1280.138)"/><path style="fill:#616d89" d="M1569.7 1329h44v3h-44z" transform="matrix(1.30435 0 0 .98814 -1414.822 -1279.15)"/><g><text x="846.719" y="52.033" style="font-family:'EdwardianScriptITC','Edwardian Script ITC',cursive;font-stretch:semi-expanded;font-size:48px;fill:#616d89" transform="translate(-568 10.222)">Queen Anne</text></g></g></g></svg>